<svg id="Layer_2" data-name="Layer 2" xmlns="http://www.w3.org/2000/svg" viewBox="0 0 292.14 215.73"><defs><style>.cls-1{fill:#e2e2e2;}.cls-2{fill:#7a7a7a;}.cls-3{fill:#d8d8d8;}.cls-4{fill:#bfbfbf;}</style></defs><g id="Layer_1" data-name="Layer 1"><path id="Path_84" data-name="Path 84" class="cls-1" d="M0,215.73V0H292.14V215.73Zm257-35.17V35.17H35.17V180.55Z"/><path id="Path_85" data-name="Path 85" class="cls-1" d="M11,11V204.75h270.1V11ZM268,191.57H24.15V24.15H268Z"/><path id="Path_86" data-name="Path 86" class="cls-2" d="M24.15,24.15V191.57H268V24.15ZM266,189.42H26.13V25.83H266Z"/><path id="Path_87" data-name="Path 87" class="cls-3" d="M266,189.42H26.13l52.78-33.58H213.23Z"/><path id="Path_88" data-name="Path 88" class="cls-4" d="M78.91,59.71v96.35L26.13,189.64V26.05Z"/><path id="Path_89" data-name="Path 89" class="cls-3" d="M266,26.13,213.23,59.71H78.91L26.13,26.13Z"/><path id="Path_90" data-name="Path 90" class="cls-4" d="M266,26.13V189.72l-52.78-33.58V59.76Z"/><rect id="Rectangle_32" data-name="Rectangle 32" class="cls-1" x="78.91" y="59.71" width="134.27" height="96.3"/><rect id="Rectangle_2" data-name="Rectangle 2" class="cls-1" x="26.94" y="25.81" width="239" height="164"/></g></svg>