<svg id="Layer_2" data-name="Layer 2" xmlns="http://www.w3.org/2000/svg" width="504.991" height="215.727" viewBox="0 0 504.991 215.727">
  <g id="Layer_1" data-name="Layer 1">
    <path id="Path_84" data-name="Path 84" d="M0,215.727V0H292.142V215.727Zm256.969-35.172V35.172H35.172V180.554Z" fill="#e2e2e2"/>
    <path id="Path_85" data-name="Path 85" d="M2.56,2.56V196.288h270.1V2.56ZM259.529,183.114H15.69V15.69H259.529Z" transform="translate(8.461 8.461)" fill="#e2e2e2"/>
    <path id="Path_86" data-name="Path 86" d="M5.61,5.61V173.034H249.449V5.61ZM247.468,170.881H7.59V7.289H247.468Z" transform="translate(18.541 18.541)" fill="#7a7a7a"/>
    <path id="Path_87" data-name="Path 87" d="M245.948,69.779H6.07L58.85,36.2H193.168Z" transform="translate(20.062 119.643)" fill="#d8d8d8"/>
    <path id="Path_88" data-name="Path 88" d="M58.85,39.716v96.347L6.07,169.642V6.05Z" transform="translate(20.062 19.996)" fill="#bfbfbf"/>
    <path id="Path_89" data-name="Path 89" d="M245.948,6.07l-52.78,33.579H58.85L6.07,6.07Z" transform="translate(20.062 20.062)" fill="#d8d8d8"/>
    <path id="Path_90" data-name="Path 90" d="M102.31,6.07V169.662L49.53,136.083V39.693Z" transform="translate(163.7 20.062)" fill="#bfbfbf"/>
    <rect id="Rectangle_32" data-name="Rectangle 32" width="134.275" height="96.304" transform="translate(78.912 59.711)" fill="#e2e2e2"/>
    <rect id="Rectangle_2" data-name="Rectangle 2" width="239" height="164" transform="translate(265.991 25.808)" fill="#fff"/>
  </g>
</svg>
