<svg xmlns="http://www.w3.org/2000/svg" viewBox="0 0 139.76 139.76"><defs><style>.cls-1{fill:#fff;}</style></defs><g id="Layer_2" data-name="Layer 2"><g id="Layer_1-2" data-name="Layer 1"><g id="Group_3" data-name="Group 3"><path id="Path_14" data-name="Path 14" class="cls-1" d="M69.94,0a69.88,69.88,0,1,0,69.82,70h0A69.68,69.68,0,0,0,70.33,0ZM48,7.55a66.71,66.71,0,0,1,43.76,0c.67.23,1.23.48,1.12,1.23.13,1-.53.78-1,.8a89.39,89.39,0,0,0-10.08.73A42.9,42.9,0,0,0,71,13.16a2.07,2.07,0,0,1-1.67.11A57.88,57.88,0,0,0,48.29,9.45c-.42,0-1.1.3-1.18-.52A1.17,1.17,0,0,1,48,7.55ZM45.89,22.34c.28-2.92.55-5.85.76-8.78.06-.86.43-1.1,1.23-1.06,1,.05,2.1,0,3.16,0A53.94,53.94,0,0,1,69.17,16.3a2.32,2.32,0,0,0,2,0C77,13.64,83.26,13,89.6,12.73c.94,0,1.89,0,2.83-.07.64,0,.92.25,1,.86.3,3,.6,5.92.92,8.88.1.9-.35.8-1,.66a130.38,130.38,0,0,0-15.2-2.71A80.44,80.44,0,0,0,52.4,21.79c-1.88.4-3.76.82-5.62,1.29-.74.19-1,.07-.89-.74ZM4.56,80.82a66.51,66.51,0,0,1,.8-25.61,1.24,1.24,0,0,1,1.28-1.14c5.41-.55,10.85-.76,16.29-.84,1.23,0,2.47,0,3.7-.07.88,0,1.11.24,1,1.14A97.25,97.25,0,0,0,26.43,74a116.53,116.53,0,0,0,1.8,14.9,1.94,1.94,0,0,1,0,1.26,55.45,55.45,0,0,1-6.33-6.4,4.06,4.06,0,0,0-3.53-1.58c-4.21,0-8.41-.14-12.61-.35C5,81.82,4.69,81.61,4.56,80.82Zm17.1,34a3.36,3.36,0,0,1-.93-.55,11.86,11.86,0,0,1-4-5.92c-.17-.58-.34-1.27.22-1.73s1.18,0,1.69.29c2.07,1.3,4.49,5.08,4.48,6.93,0,1-.55,1.33-1.43,1Zm6.8,3.67c-.38-.15-.74-.3-1.12-.42a1,1,0,0,1-.76-1c-1-7-4.6-12-11.19-14.72a1,1,0,0,1-.73-.82c-.14-.75-.28-1.5-.44-2.24s0-1.09.88-1a13.13,13.13,0,0,1,3.81,1.26c6.21,3.13,11.46,11.12,11.5,17.53,0,2.12,0,2.12-1.95,1.38Zm9.06,1.83c-.07.64-.37.81-1,.66l-.21,0c-2.55-.56-2.55-.56-2.52-3.14-.1-6-2.56-11-6.36-15.45A21,21,0,0,0,16.18,95l-.31-.08c-2.45-.49-2.42-.49-2.55-3-.06-.92.25-1.12,1.11-1a17.19,17.19,0,0,1,7.07,2c9.6,5.29,15.22,13.27,16.19,24.31a16.6,16.6,0,0,1-.17,3.15Zm4.6-79.51a99.31,99.31,0,0,0-9.78-4.49,1.31,1.31,0,0,0-1.76.42,26.93,26.93,0,0,1-7.76,6.4,11.82,11.82,0,0,1-4.08,1.43c-3.3.42-5.22-1.29-5.21-5a12.59,12.59,0,0,1,1-4.1A29.42,29.42,0,0,1,28.2,20.33a10.18,10.18,0,0,1,3.4-1.09c3.35-.45,5.47,1.57,5.17,5a16.25,16.25,0,0,1-2.14,6.68c-.49.86-.28,1.15.55,1.45,3.3,1.24,6.43,2.87,9.58,4.41.71.35,1,.65.4,1.36a17.11,17.11,0,0,0-1.48,2.28c-.41.73-.8.83-1.55.43Zm50.49,72.76c-.07,1.59,0,3.19,0,4.79-.41,4.49-.81,9-1.32,13.44a1.33,1.33,0,0,1-1.08,1.28,66.19,66.19,0,0,1-40.47.05,1.53,1.53,0,0,1-1.22-1.51c-.66-6-1-11.92-1.3-17.9,0-.91.39-.91,1.06-.77,2.28.46,4.56.86,6.83,1.36a1.05,1.05,0,0,0,1.3-.61c.65-1.1,1.37-2.15,2-3.25a1.42,1.42,0,0,1,1.58-.82,105.75,105.75,0,0,0,14.13.44c2.06-.08,4.12-.25,6.18-.44a1.32,1.32,0,0,1,1.43.71c.59,1,1.31,1.92,1.86,2.94a1.54,1.54,0,0,0,2,.88l0,0c2-.52,4-.89,5.92-1.41C92.38,112.49,92.65,112.63,92.61,113.56Zm6.22-59.24q-.9,6.41-1.64,12.84a115.06,115.06,0,0,1-1.75,12.93c-1,4.45-2.46,8.73-5.34,12.38A17.22,17.22,0,0,1,77.88,99c-9.68,1.06-17-3-22.78-10.46Q51,83.25,47.27,77.69A6.82,6.82,0,0,1,46,71.93c.38-1.42.91-1.57,2-.6,3.11,2.73,5.89,5.8,8.77,8.76.25.25.43.6.89.7A3.65,3.65,0,0,0,57,77.15a49.31,49.31,0,0,0-5.79-6,64,64,0,0,1-6.28-6.78,6.49,6.49,0,0,1-1.16-5.75c.41-1.68,1.18-2,2.5-.89,4.36,3.56,8.4,7.48,12.51,11.32,1.11,1,2.21,2.1,3.32,3.13.23.21.44.62.79.43s.29-.57.28-.9a4.53,4.53,0,0,0-1.58-3.23c-2.67-2.51-5.35-5-8-7.54-1.92-1.83-3.8-3.68-5.57-5.66s-1.6-4.11-.93-6.34c.3-1,.79-1.1,1.73-.42,3.17,2.3,6.12,4.9,9.08,7.46,3.13,2.7,6.23,5.45,9.35,8.16.22.2.45.62.8.41s.15-.6.1-.92a9.11,9.11,0,0,0-2.23-4.65c-2.13-2.51-4.29-5-6.43-7.53a44,44,0,0,1-2.7-3.68c-1.39-2.06-1.07-4.14-.17-6.22.49-1.12,1-1.21,1.9-.38q4,3.56,7.88,7.19c5.37,5,10.62,10.1,16.09,15,2,1.83,2.82,1.81,4.84-.09a17.09,17.09,0,0,0,3.27-4.58,20.51,20.51,0,0,1,2.47-4,5.14,5.14,0,0,1,4.67-1.81c.91.1,1.24.43,1.1,1.46ZM97.29,43.9A2.52,2.52,0,0,1,95,41.47a1.67,1.67,0,0,1,1.57-1.74h.22a2.46,2.46,0,0,1,2.33,2.4,1.75,1.75,0,0,1-1.75,1.76h0Zm2.11-7a2.73,2.73,0,0,1,2.65-2.8,3.08,3.08,0,0,1,.61,0,5.34,5.34,0,0,1,4.22,4.54,2.67,2.67,0,0,1-2.27,3,2.33,2.33,0,0,1-.59,0,5.24,5.24,0,0,1-4.62-4.83Zm27.26,64.22c-.75,2.46-1.74,4.71-4.5,5.56-.24.07-.43.37-.6.6a65.88,65.88,0,0,1-6.62,7.35,1.4,1.4,0,0,0-.58.88c-.4,4.21-3.12,6.8-6.36,9a8.13,8.13,0,0,1-3.93,1.52c-1.77,0-2.69-1-2.62-2.57a7.28,7.28,0,0,1,1.11-3.38,14.84,14.84,0,0,1,4.64-4.82,1.48,1.48,0,0,0,.78-1.21c.12-2.25.27-4.49.4-6.74a.78.78,0,0,0-.58-.92h-.07a3.47,3.47,0,0,1-2.79-4h0a8.07,8.07,0,0,1,5.49-6.81c2.32-.73,4.25.49,4.38,2.92.07,1.1.43,1.48,1.5,1.55,1.88.14,3.75.4,5.62.65a1.1,1.1,0,0,0,1.12-.48,4.5,4.5,0,0,1,1.74-1.44,1.25,1.25,0,0,1,1.73.34,1.29,1.29,0,0,1,.21.66,2.77,2.77,0,0,1-.08,1.4Zm6.93-44.34a34.17,34.17,0,0,1,2.56,13.28,32.9,32.9,0,0,1-3.08,14.31,13.72,13.72,0,0,1-3.68,4.8,6.38,6.38,0,0,1-8.64-.08A15.69,15.69,0,0,1,116,81.66c-2.85-8.83-2.71-17.55,1.2-26.07a13.26,13.26,0,0,1,3.28-4.43,6.47,6.47,0,0,1,9-.19,15,15,0,0,1,4.08,5.82ZM126,37.59a9,9,0,0,1,.35,2.58c0,3.27-2.11,5-5.33,4.46-3.52-.64-6.35-2.61-8.92-5a28.17,28.17,0,0,1-8.51-12.77,8.83,8.83,0,0,1-.33-4.5A3.81,3.81,0,0,1,107,19.26a8.29,8.29,0,0,1,4.2,1A28.36,28.36,0,0,1,126,37.6Z"/><path id="Path_15" data-name="Path 15" class="cls-1" d="M60.7,122.22c-3.23,3.66-2.63,7.55,1.57,10a16.22,16.22,0,0,0,15.24,0c4-2.37,4.61-6.44,1.6-9.94C74.65,117.08,65.24,117.07,60.7,122.22Zm15.1,7.2a8.25,8.25,0,0,1-11.65.07l-.21-.22a3.46,3.46,0,0,1-.4-4.49c2.59-4.29,9.9-4.44,12.67-.27a3.86,3.86,0,0,1-.41,4.91Z"/><path id="Path_16" data-name="Path 16" class="cls-1" d="M124.22,79.62a6.65,6.65,0,0,0,.58-.33,55,55,0,0,0,7.82-8.6,1,1,0,0,0,0-1.35,61.29,61.29,0,0,0-4.74-5.81,32.49,32.49,0,0,0-3.56-3.38A180.65,180.65,0,0,1,124.22,79.62Z"/><path id="Path_17" data-name="Path 17" class="cls-1" d="M120,104c-1.84-.21-3.67-.44-5.5-.64a3.5,3.5,0,0,0-2.92,2.21c-.26,2.38-.46,4.76-.65,6.92-.16.81.08.92.68,1.07a3,3,0,0,0,3.33-1.33c.46-.55,1-1,1.5-1.57a54.09,54.09,0,0,0,4.23-5.09C121.38,104.62,121.14,104.13,120,104Z"/><path id="Path_18" data-name="Path 18" class="cls-1" d="M32.63,24.38a2.46,2.46,0,0,0-.16-.48,1,1,0,0,0,0-.1,2.71,2.71,0,0,0-.21-.37l0,0a.83.83,0,0,0-.11-.15l0,0a1.7,1.7,0,0,0-.24-.22l-.18-.12,0,0a.21.21,0,0,0-.1-.06l-.12-.06-.05,0-.1,0-.15-.05-.27-.07-.13,0a3.58,3.58,0,0,0-1.22,0,6.79,6.79,0,0,0-2.68,1.14,27.6,27.6,0,0,0-9.35,10.7,7,7,0,0,0-.86,3.23,2.54,2.54,0,0,0,3.26,2.72,9.29,9.29,0,0,0,3.72-1.74,26.89,26.89,0,0,0,7.74-8.73c.16-.28.31-.57.45-.86s.24-.5.35-.75l0-.14.09-.22.12-.33c0-.11.07-.22.1-.33l0-.17.12-.51,0-.29,0-.24,0-.22c0-.07,0-.15,0-.23s0-.15,0-.22a4,4,0,0,0-.05-.7Z"/><path id="Path_19" data-name="Path 19" class="cls-1" d="M107.16,25.23a8.12,8.12,0,0,0,1,3.76,26.27,26.27,0,0,0,6,7.85,13.69,13.69,0,0,0,5.47,3.46c2.28.66,3.81-.4,3.8-2.59a6,6,0,0,0-.6-2.63,27.1,27.1,0,0,0-9.9-11.46,6.54,6.54,0,0,0-2.51-1,2.53,2.53,0,0,0-3.1,1.76A2.76,2.76,0,0,0,107.16,25.23Z"/></g></g></g></svg>