<svg xmlns="http://www.w3.org/2000/svg" viewBox="0 0 665 123"><defs><style>.cls-1{fill:#fff;}.cls-2{isolation:isolate;}.cls-3{fill:#1f2e8d;}</style></defs><g id="Layer_2" data-name="Layer 2"><g id="Layer_1-2" data-name="Layer 1"><g id="Rectangle_1" data-name="Rectangle 1"><path class="cls-1" d="M61.5,0h542A61.49,61.49,0,0,1,665,61.5h0A61.49,61.49,0,0,1,603.5,123H61.5A61.49,61.49,0,0,1,0,61.5H0A61.49,61.49,0,0,1,61.5,0Z"/></g><g id="Loading" class="cls-2"><g class="cls-2"><path class="cls-3" d="M273.75,44.4H296.7v5H280.4v9h14.7v4.9H280.4V73h17.1v5H273.75Z"/><path class="cls-3" d="M302.9,53.5H308l.8,3.55a10,10,0,0,1,8.45-4.15c5.6,0,9.55,3.85,9.55,9.35V78h-6.4V63.25a4.91,4.91,0,0,0-5.1-5.1c-3.45,0-6,2.6-6,6.35V78h-6.4Z"/><path class="cls-3" d="M341.15,53.5H348v4.85h-6.8v11.7a3.28,3.28,0,0,0,3.45,3.45,12.57,12.57,0,0,0,3.15-.45l.85,4.8a22.37,22.37,0,0,1-5.55.75c-4.9,0-8.3-3.2-8.3-7.9V58.35H330.2V53.5h4.55V46.3h6.4Z"/><path class="cls-3" d="M363,52.9c6.95,0,11.8,5.05,11.8,12.4,0,.7-.05,1.4-.1,2H356.85c.45,3.9,3.55,6.5,7.75,6.5a14.87,14.87,0,0,0,7-2l2,4.35a22.62,22.62,0,0,1-9.8,2.45c-7.9,0-13.35-5.3-13.35-12.85S355.6,52.9,363,52.9Zm-6.15,10.6h11.8c-.2-3.5-2.45-5.85-5.65-5.85S357.25,60,356.85,63.5Z"/><path class="cls-3" d="M379.45,53.5h5.1l.8,3.8a7.92,7.92,0,0,1,7.25-4.2,12.77,12.77,0,0,1,2.95.35l-.6,5.1a13.08,13.08,0,0,0-2.85-.35c-3.8,0-6.25,2.95-6.25,7.15V78h-6.4Z"/></g></g></g></g></svg>