<svg xmlns="http://www.w3.org/2000/svg" viewBox="0 0 223 36"><defs><style>.cls-1{isolation:isolate;}.cls-2{fill:#fff;}.cls-3{fill:none;}.cls-4{fill:#fefefe;}</style></defs><g id="Layer_2" data-name="Layer 2"><g id="Layer_1-2" data-name="Layer 1"><g id="Group_6" data-name="Group 6"><g id="Globe_Easyhub_Eastwood" data-name="Globe Easyhub Eastwood" class="cls-1"><g class="cls-1"><path class="cls-2" d="M20.84,23.26a9.87,9.87,0,0,1-4.09,1A5.91,5.91,0,0,1,10.68,18c0-3.67,2.41-6.27,5.92-6.27a8.39,8.39,0,0,1,4.07,1.17l-.36.65a7.38,7.38,0,0,0-3.62-1.08c-3,0-5.15,2.27-5.15,5.53a5.18,5.18,0,0,0,5.26,5.53,7.63,7.63,0,0,0,3.21-.7V18.69H16.75V18h4.09Z"/><path class="cls-2" d="M24.59,22.31a1.09,1.09,0,0,0,1.19,1.17,3.53,3.53,0,0,0,.89-.13l.12.7a4.85,4.85,0,0,1-1.17.17,1.74,1.74,0,0,1-1.89-1.84V11.32h.86Z"/><path class="cls-2" d="M32,15.09a4.23,4.23,0,0,1,4.23,4.57,4.25,4.25,0,1,1-8.48,0A4.24,4.24,0,0,1,32,15.09Zm0,8.41c2,0,3.37-1.59,3.37-3.84S33.92,15.81,32,15.81s-3.37,1.58-3.37,3.85S30,23.5,32,23.5Z"/><path class="cls-2" d="M38.67,11.32h.87v5.6a3.33,3.33,0,0,1,3.07-1.83c2.25,0,3.88,1.89,3.88,4.57s-1.63,4.56-3.88,4.56a3.38,3.38,0,0,1-3.13-1.88L39.37,24h-.7Zm3.76,4.49a2.87,2.87,0,0,0-2.91,3.06v1.56a2.88,2.88,0,0,0,2.91,3.07c1.86,0,3.19-1.61,3.19-3.84S44.29,15.81,42.43,15.81Z"/><path class="cls-2" d="M52.37,15.09c2.23,0,3.78,1.8,3.78,4.39v.36h-7a3.55,3.55,0,0,0,3.58,3.69,5.87,5.87,0,0,0,2.68-.75l.29.63a6.8,6.8,0,0,1-3.06.81,4.29,4.29,0,0,1-4.36-4.56C48.3,17,50,15.09,52.37,15.09Zm-3.2,4.16h6.15c0-2.06-1.22-3.46-3-3.46S49.29,17.18,49.17,19.25Z"/><path class="cls-2" d="M63.22,11.9h7.4v.72H64.1v4.83h6v.72h-6v5.11h6.81V24H63.22Z"/><path class="cls-2" d="M76.79,18.83a8.39,8.39,0,0,1,2.11.26V17.93a2.13,2.13,0,0,0-2.34-2.14,7.44,7.44,0,0,0-2.92.63l-.23-.65a8.14,8.14,0,0,1,3.22-.68,2.86,2.86,0,0,1,3.12,2.84v4.68a.83.83,0,0,0,.9.9,2,2,0,0,0,.5-.07l.09.69a3.86,3.86,0,0,1-.77.09A1.4,1.4,0,0,1,79,22.74v-.32a3.43,3.43,0,0,1-3.17,1.8,2.71,2.71,0,0,1-3-2.54C72.85,19.88,74.33,18.83,76.79,18.83ZM76,23.55a2.81,2.81,0,0,0,2.92-3v-.86a8.22,8.22,0,0,0-2-.27c-2,0-3.15.83-3.15,2.23A2.08,2.08,0,0,0,76,23.55Z"/><path class="cls-2" d="M85.43,15.09a7.51,7.51,0,0,1,2.78.59l-.22.67a6.36,6.36,0,0,0-2.5-.56c-1.3,0-2.2.65-2.2,1.6,0,2.52,5.21,1.15,5.21,4.45,0,1.4-1.25,2.38-3.07,2.38a8.24,8.24,0,0,1-3.06-.67l.22-.67a7.09,7.09,0,0,0,2.79.65c1.37,0,2.27-.68,2.27-1.69,0-2.59-5.2-1.22-5.2-4.45C82.45,16,83.67,15.09,85.43,15.09Z"/><path class="cls-2" d="M93.62,25.51C92.94,27.22,92.18,28,90.91,28a5.51,5.51,0,0,1-1.12-.14l.14-.72a3.74,3.74,0,0,0,.92.12c.94,0,1.46-.54,2-1.89L93.41,24,89.75,15.3h.9L93.82,23l3.05-7.67h.9Z"/><path class="cls-2" d="M99.91,11.32h.86v5.75a3.41,3.41,0,0,1,3.19-2,3.08,3.08,0,0,1,3.24,3.17V24h-.87V18.36a2.45,2.45,0,0,0-2.57-2.53,3,3,0,0,0-3,3.18v5h-.86Z"/><path class="cls-2" d="M117.35,24h-.7l-.11-1.8a3.39,3.39,0,0,1-3.22,2,3.1,3.1,0,0,1-3.26-3.17V15.3h.86v5.64a2.47,2.47,0,0,0,2.59,2.54,3,3,0,0,0,3-3.19v-5h.86Z"/><path class="cls-2" d="M120.5,11.32h.86v5.6a3.33,3.33,0,0,1,3.08-1.83c2.25,0,3.87,1.89,3.87,4.57s-1.62,4.56-3.87,4.56a3.38,3.38,0,0,1-3.13-1.88L121.2,24h-.7Zm3.76,4.49a2.88,2.88,0,0,0-2.92,3.06v1.56a2.88,2.88,0,0,0,2.92,3.07c1.86,0,3.19-1.61,3.19-3.84S126.12,15.81,124.26,15.81Z"/><path class="cls-2" d="M135.53,11.9h7.4v.72h-6.52v4.83h5.94v.72h-5.94v5.11h6.81V24h-7.69Z"/><path class="cls-2" d="M149.1,18.83a8.39,8.39,0,0,1,2.11.26V17.93a2.14,2.14,0,0,0-2.34-2.14,7.36,7.36,0,0,0-2.92.63l-.24-.65a8.19,8.19,0,0,1,3.23-.68,2.86,2.86,0,0,1,3.11,2.84v4.68a.83.83,0,0,0,.9.9,2.16,2.16,0,0,0,.51-.07l.09.69a4.05,4.05,0,0,1-.78.09,1.4,1.4,0,0,1-1.47-1.48v-.32a3.45,3.45,0,0,1-3.17,1.8,2.71,2.71,0,0,1-3-2.54C145.16,19.88,146.63,18.83,149.1,18.83Zm-.81,4.72a2.81,2.81,0,0,0,2.92-3v-.86a8.24,8.24,0,0,0-2-.27c-2,0-3.15.83-3.15,2.23A2.08,2.08,0,0,0,148.29,23.55Z"/><path class="cls-2" d="M157.74,15.09a7.51,7.51,0,0,1,2.77.59l-.21.67a6.4,6.4,0,0,0-2.51-.56c-1.29,0-2.19.65-2.19,1.6,0,2.52,5.2,1.15,5.2,4.45,0,1.4-1.24,2.38-3.06,2.38a8.2,8.2,0,0,1-3.06-.67l.21-.67a7.14,7.14,0,0,0,2.8.65c1.36,0,2.26-.68,2.26-1.69,0-2.59-5.2-1.22-5.2-4.45C154.75,16,156,15.09,157.74,15.09Z"/><path class="cls-2" d="M164.79,15.3h3V16h-3V21.8a1.62,1.62,0,0,0,1.7,1.68,4.36,4.36,0,0,0,1.29-.2l.15.7a5.65,5.65,0,0,1-1.6.24,2.28,2.28,0,0,1-2.4-2.36V16H162V15.3h1.91V12.71h.86Z"/><path class="cls-2" d="M178.75,24h-.87l-2.43-7.63L173,24h-.88l-2.86-8.7h.88l2.43,7.64L175,15.3h.85l2.43,7.64,2.45-7.64h.86Z"/><path class="cls-2" d="M187.26,15.09a4.23,4.23,0,0,1,4.23,4.57,4.25,4.25,0,1,1-8.48,0A4.24,4.24,0,0,1,187.26,15.09Zm0,8.41c2,0,3.37-1.59,3.37-3.84s-1.41-3.85-3.37-3.85-3.37,1.58-3.37,3.85S185.28,23.5,187.26,23.5Z"/><path class="cls-2" d="M197.56,15.09a4.23,4.23,0,0,1,4.23,4.57,4.25,4.25,0,1,1-8.48,0A4.24,4.24,0,0,1,197.56,15.09Zm0,8.41c2,0,3.36-1.59,3.36-3.84s-1.4-3.85-3.36-3.85-3.37,1.58-3.37,3.85S195.58,23.5,197.56,23.5Z"/><path class="cls-2" d="M211.42,24h-.71l-.1-1.66a3.39,3.39,0,0,1-3.12,1.88c-2.27,0-3.89-1.89-3.89-4.56s1.62-4.57,3.89-4.57a3.28,3.28,0,0,1,3.06,1.83v-5.6h.87Zm-3.77-.5a2.87,2.87,0,0,0,2.92-3.07V18.87a2.87,2.87,0,0,0-2.92-3.06c-1.85,0-3.17,1.6-3.17,3.85S205.8,23.5,207.65,23.5Z"/></g></g><g id="Rectangle_5" data-name="Rectangle 5"><rect class="cls-3" width="223" height="36" rx="5"/><path class="cls-4" d="M218,36H5a5,5,0,0,1-5-5V5A5,5,0,0,1,5,0H218a5,5,0,0,1,5,5V31A5,5,0,0,1,218,36ZM5,1A4,4,0,0,0,1,5V31a4,4,0,0,0,4,4H218a4,4,0,0,0,4-4V5a4,4,0,0,0-4-4Z"/></g></g></g></g></svg>