<svg xmlns="http://www.w3.org/2000/svg" viewBox="0 0 665 123"><defs><style>.cls-1{fill:#fff;}.cls-2{isolation:isolate;}.cls-3{fill:#1f2e8d;}</style></defs><g id="Layer_2" data-name="Layer 2"><g id="Layer_1-2" data-name="Layer 1"><g id="Rectangle_1" data-name="Rectangle 1"><path class="cls-1" d="M61.5,0h542A61.49,61.49,0,0,1,665,61.5h0A61.49,61.49,0,0,1,603.5,123H61.5A61.49,61.49,0,0,1,0,61.5H0A61.49,61.49,0,0,1,61.5,0Z"/></g><g id="Enter" class="cls-2"><g class="cls-2"><path class="cls-3" d="M283.25,44.4h6.65V72.9h15V78h-21.6Z"/><path class="cls-3" d="M320.15,52.9c7.8,0,13.25,5.3,13.25,12.85S328,78.6,320.15,78.6,307,73.3,307,65.75,312.4,52.9,320.15,52.9Zm0,20.7c4,0,6.75-3.25,6.75-7.85s-2.8-7.85-6.75-7.85-6.7,3.2-6.7,7.85S316.25,73.6,320.15,73.6Z"/><path class="cls-3" d="M350,52.9a17.23,17.23,0,0,1,9.4,2.85l-2.6,4.3a10.41,10.41,0,0,0-5.9-2c-4.3,0-7.35,3.2-7.35,7.75s3.05,7.75,7.35,7.75a10.48,10.48,0,0,0,5.9-2.1l2.6,4.35A17.23,17.23,0,0,1,350,78.6c-7.6,0-12.95-5.35-12.95-12.85S342.35,52.9,350,52.9Z"/><path class="cls-3" d="M363.45,42.8h6.15V64L379,53.5h7.3L375.7,65l10.95,13h-7.4l-7.7-9.3-1.95,2V78h-6.15Z"/></g></g></g></g></svg>