<svg xmlns="http://www.w3.org/2000/svg" viewBox="0 0 665 123"><defs><style>.cls-1{fill:#fff;}.cls-2{isolation:isolate;}.cls-3{fill:#1f2e8d;}</style></defs><g id="Layer_2" data-name="Layer 2"><g id="Layer_1-2" data-name="Layer 1"><g id="Rectangle_1" data-name="Rectangle 1"><path class="cls-1" d="M61.5,0h542A61.49,61.49,0,0,1,665,61.5h0A61.49,61.49,0,0,1,603.5,123H61.5A61.49,61.49,0,0,1,0,61.5H0A61.49,61.49,0,0,1,61.5,0Z"/></g><g id="Enter" class="cls-2"><g class="cls-2"><path class="cls-3" d="M239.18,44.4h14c6.75,0,11.55,4.35,11.55,10.55a9.59,9.59,0,0,1-7.75,9.8L266.18,78h-7.25l-8.15-12.25h-5.2V78h-6.4Zm6.4,16.2h6.6c3.5,0,6-2.2,6-5.55s-2.5-5.55-6-5.55h-6.6Z"/><path class="cls-3" d="M281.53,52.9c7,0,11.8,5.05,11.8,12.4,0,.7-.05,1.4-.1,2H275.38c.45,3.9,3.55,6.5,7.75,6.5a14.87,14.87,0,0,0,7.05-2l1.95,4.35a22.62,22.62,0,0,1-9.8,2.45c-7.9,0-13.35-5.3-13.35-12.85S274.13,52.9,281.53,52.9Zm-6.15,10.6h11.8c-.2-3.5-2.45-5.85-5.65-5.85S275.78,60,275.38,63.5Z"/><path class="cls-3" d="M296.63,63h13.8v4.9h-13.8Z"/><path class="cls-3" d="M327.33,52.9c7.8,0,13.25,5.3,13.25,12.85S335.13,78.6,327.33,78.6s-13.21-5.3-13.21-12.85S319.58,52.9,327.33,52.9Zm0,20.7c3.95,0,6.75-3.25,6.75-7.85s-2.8-7.85-6.75-7.85-6.71,3.2-6.71,7.85S323.43,73.6,327.33,73.6Z"/><path class="cls-3" d="M345.62,53.5h5.11l.79,3.15a9.59,9.59,0,0,1,7.86-3.75c6.6,0,11.25,5.3,11.25,12.85S366,78.6,359.38,78.6A9.17,9.17,0,0,1,352,75.2V88.4h-6.4ZM357.73,58c-3.4,0-5.8,2.55-5.8,6.15v3.3c0,3.55,2.4,6.15,5.8,6.15,3.75,0,6.4-3.25,6.4-7.8S361.48,58,357.73,58Z"/><path class="cls-3" d="M386.78,52.9c7,0,11.8,5.05,11.8,12.4,0,.7-.05,1.4-.1,2H380.63c.45,3.9,3.55,6.5,7.75,6.5a14.87,14.87,0,0,0,7.05-2l1.95,4.35a22.62,22.62,0,0,1-9.8,2.45c-7.9,0-13.36-5.3-13.36-12.85S379.37,52.9,386.78,52.9Zm-6.15,10.6h11.8c-.2-3.5-2.45-5.85-5.65-5.85S381,60,380.63,63.5Z"/><path class="cls-3" d="M403.22,53.5h5.11l.79,3.55a10,10,0,0,1,8.46-4.15c5.6,0,9.55,3.85,9.55,9.35V78h-6.4V63.25a4.91,4.91,0,0,0-5.1-5.1c-3.45,0-6,2.6-6,6.35V78h-6.4Z"/></g></g></g></g></svg>