<svg xmlns="http://www.w3.org/2000/svg" width="970.762" height="139.762" viewBox="0 0 970.762 139.762">
  <g id="Group_7" data-name="Group 7" transform="translate(-68.238 -75.168)">
    <g id="Group_3" data-name="Group 3" transform="translate(-85.352 -111.502)">
      <path id="Path_14" data-name="Path 14" d="M223.535,186.67a69.881,69.881,0,1,0,69.817,69.941A69.686,69.686,0,0,0,223.535,186.67Zm-21.926,7.554a66.685,66.685,0,0,1,43.763.018c.668.23,1.227.477,1.121,1.227.127.976-.534.785-.993.8a90.686,90.686,0,0,0-10.081.728,42.9,42.9,0,0,0-10.8,2.831,2.058,2.058,0,0,1-1.668.11,57.88,57.88,0,0,0-21.067-3.821c-.424,0-1.1.307-1.188-.516A1.174,1.174,0,0,1,201.609,194.223Zm-2.131,14.786c.286-2.923.551-5.85.763-8.78.06-.862.431-1.1,1.234-1.06,1.05.053,2.1.014,3.153.014a53.761,53.761,0,0,1,18.133,3.786,2.281,2.281,0,0,0,1.955-.032c5.875-2.626,12.135-3.308,18.476-3.538.94-.035,1.884-.025,2.828-.074.636-.032.923.251.983.866.3,2.959.6,5.921.919,8.876.1.9-.353.806-.979.665a131.847,131.847,0,0,0-15.2-2.718,80.617,80.617,0,0,0-25.754,1.446c-1.877.4-3.757.817-5.62,1.29C199.626,209.935,199.4,209.815,199.477,209.009ZM158.15,267.494a66.537,66.537,0,0,1,.8-25.612,1.229,1.229,0,0,1,1.276-1.138c5.419-.551,10.852-.767,16.295-.841,1.234-.018,2.467-.018,3.7-.078.877-.039,1.106.247.965,1.145a97.075,97.075,0,0,0-1.166,19.734,116.623,116.623,0,0,0,1.8,14.9,1.966,1.966,0,0,1,0,1.251,55.381,55.381,0,0,1-6.331-6.394,4.047,4.047,0,0,0-3.528-1.58c-4.206.035-8.413-.145-12.615-.35C158.588,268.488,158.277,268.275,158.15,267.494Zm17.1,33.986a3.519,3.519,0,0,1-.93-.548,11.778,11.778,0,0,1-4.026-5.924c-.173-.583-.346-1.265.219-1.725.608-.495,1.177-.035,1.683.286,2.071,1.3,4.493,5.076,4.486,6.935C176.671,301.445,176.134,301.83,175.247,301.48Zm6.8,3.665c-.375-.141-.742-.3-1.12-.417-.513-.159-.686-.467-.763-1.021-.993-6.97-4.6-11.986-11.184-14.715a1.029,1.029,0,0,1-.728-.824c-.145-.746-.286-1.5-.445-2.241s.035-1.085.88-.944a13.1,13.1,0,0,1,3.807,1.255c6.218,3.132,11.46,11.12,11.505,17.529C184.017,305.885,184.017,305.885,182.051,305.146Zm9.056,1.831c-.067.643-.368.809-.944.665-.067-.018-.141-.032-.212-.046-2.545-.551-2.545-.551-2.52-3.132-.1-5.981-2.556-11.011-6.359-15.457a20.974,20.974,0,0,0-11.3-7.324c-.106-.025-.209-.057-.315-.078-2.446-.491-2.411-.491-2.549-3.019-.053-.912.258-1.113,1.11-1.046a17.213,17.213,0,0,1,7.073,1.979c9.6,5.288,15.217,13.269,16.192,24.312A16.47,16.47,0,0,1,191.107,306.977Zm4.609-79.51a99.322,99.322,0,0,0-9.784-4.486,1.314,1.314,0,0,0-1.764.421,26.953,26.953,0,0,1-7.755,6.4,11.917,11.917,0,0,1-4.083,1.428c-3.3.421-5.221-1.287-5.207-4.949a12.412,12.412,0,0,1,.961-4.1A29.385,29.385,0,0,1,181.786,207a10.193,10.193,0,0,1,3.4-1.089c3.358-.456,5.472,1.566,5.178,4.952a16.432,16.432,0,0,1-2.146,6.681c-.484.855-.276,1.142.555,1.449,3.3,1.234,6.423,2.863,9.579,4.411.71.35.944.65.4,1.357a17.225,17.225,0,0,0-1.485,2.276C196.862,227.771,196.466,227.874,195.716,227.467ZM246.2,300.233c-.071,1.591-.018,3.188-.018,4.782-.41,4.493-.813,8.971-1.322,13.442a1.334,1.334,0,0,1-1.075,1.28,66.11,66.11,0,0,1-40.472.049,1.514,1.514,0,0,1-1.219-1.506c-.665-5.952-1.036-11.923-1.3-17.9-.039-.908.385-.912,1.06-.774,2.276.46,4.56.866,6.829,1.361a1.05,1.05,0,0,0,1.3-.611c.643-1.1,1.364-2.146,1.99-3.248a1.429,1.429,0,0,1,1.573-.82,107.173,107.173,0,0,0,14.132.445c2.064-.088,4.125-.258,6.186-.442a1.316,1.316,0,0,1,1.424.711c.59,1,1.315,1.919,1.866,2.934a1.532,1.532,0,0,0,2.025.866c1.962-.52,3.962-.891,5.924-1.41C245.966,299.162,246.238,299.3,246.2,300.233Zm6.225-59.245q-.912,6.41-1.644,12.842a117.785,117.785,0,0,1-1.746,12.926c-1.018,4.457-2.464,8.731-5.341,12.382a17.226,17.226,0,0,1-12.223,6.532c-9.678,1.06-17.027-2.962-22.785-10.456q-4.077-5.307-7.829-10.855a6.811,6.811,0,0,1-1.276-5.762c.382-1.414.908-1.569,2.018-.6,3.114,2.729,5.889,5.8,8.773,8.766.247.251.424.594.891.693a3.673,3.673,0,0,0-.682-3.634,49.745,49.745,0,0,0-5.786-6.044,61.967,61.967,0,0,1-6.281-6.78,6.471,6.471,0,0,1-1.166-5.751c.414-1.679,1.184-1.958,2.5-.887,4.358,3.563,8.4,7.479,12.509,11.315,1.113,1.039,2.209,2.1,3.323,3.139.226.209.442.615.792.421.283-.155.29-.562.279-.894a4.519,4.519,0,0,0-1.584-3.231c-2.669-2.513-5.348-5.012-8-7.54-1.916-1.827-3.8-3.683-5.571-5.663-1.721-1.923-1.591-4.107-.923-6.341.3-1.007.788-1.092,1.725-.414,3.174,2.3,6.119,4.9,9.084,7.455,3.132,2.7,6.225,5.451,9.346,8.165.226.2.452.622.8.406.283-.18.152-.6.106-.919a9.133,9.133,0,0,0-2.234-4.645c-2.135-2.517-4.295-5.016-6.43-7.536a43.177,43.177,0,0,1-2.7-3.683c-1.393-2.054-1.071-4.136-.166-6.214.488-1.117.976-1.209,1.9-.382q3.971,3.558,7.879,7.186c5.366,4.991,10.618,10.1,16.086,14.984,2.05,1.831,2.824,1.806,4.839-.085a17.158,17.158,0,0,0,3.27-4.588,20.413,20.413,0,0,1,2.474-3.959,5.132,5.132,0,0,1,4.666-1.806C252.226,239.634,252.565,239.959,252.42,240.988Zm-1.548-10.42a2.51,2.51,0,0,1-2.312-2.428,1.654,1.654,0,0,1,1.789-1.732,2.461,2.461,0,0,1,2.329,2.4A1.756,1.756,0,0,1,250.872,230.567Zm2.114-6.988a2.725,2.725,0,0,1,3.259-2.746,5.321,5.321,0,0,1,4.22,4.535,2.674,2.674,0,0,1-2.86,3.043A5.246,5.246,0,0,1,252.986,223.579Zm27.26,64.218c-.746,2.457-1.743,4.708-4.5,5.557-.24.071-.428.375-.6.6a66.325,66.325,0,0,1-6.624,7.356,1.41,1.41,0,0,0-.58.88c-.4,4.21-3.114,6.8-6.359,8.989a8.1,8.1,0,0,1-3.927,1.52c-1.767,0-2.686-.969-2.623-2.573a7.251,7.251,0,0,1,1.117-3.376,14.757,14.757,0,0,1,4.638-4.825,1.469,1.469,0,0,0,.774-1.209c.127-2.245.276-4.489.4-6.734a.768.768,0,0,0-.65-.933,3.466,3.466,0,0,1-2.782-4.04,8.074,8.074,0,0,1,5.482-6.815c2.322-.721,4.249.495,4.387,2.92.064,1.1.424,1.481,1.5,1.559,1.88.134,3.75.4,5.62.643a1.09,1.09,0,0,0,1.117-.477,4.485,4.485,0,0,1,1.743-1.442,1.244,1.244,0,0,1,1.933,1A2.859,2.859,0,0,1,280.245,287.8Zm6.928-44.336a34.1,34.1,0,0,1,2.559,13.276,32.959,32.959,0,0,1-3.075,14.312,13.811,13.811,0,0,1-3.68,4.8,6.38,6.38,0,0,1-8.639-.081,15.658,15.658,0,0,1-4.715-7.444c-2.849-8.823-2.711-17.543,1.2-26.065a13.341,13.341,0,0,1,3.284-4.429,6.463,6.463,0,0,1,8.982-.187A14.987,14.987,0,0,1,287.173,243.462Zm-7.582-19.2a8.693,8.693,0,0,1,.357,2.577c-.025,3.27-2.114,5.037-5.334,4.457-3.524-.636-6.345-2.609-8.915-4.945a28.136,28.136,0,0,1-8.519-12.771,8.771,8.771,0,0,1-.325-4.5,3.8,3.8,0,0,1,3.761-3.146,8.277,8.277,0,0,1,4.2.951A28.4,28.4,0,0,1,279.591,224.265Z" transform="translate(0 0)" fill="#fff"/>
      <path id="Path_15" data-name="Path 15" d="M321.544,525.384c-3.231,3.659-2.626,7.55,1.576,10a16.206,16.206,0,0,0,15.235-.035c3.969-2.372,4.616-6.444,1.6-9.943C335.5,520.248,326.089,520.241,321.544,525.384Zm15.1,7.2a8.233,8.233,0,0,1-11.855-.148,3.458,3.458,0,0,1-.407-4.489c2.591-4.291,9.908-4.443,12.672-.265A3.853,3.853,0,0,1,336.647,532.587Z" transform="translate(-107.256 -216.498)" fill="#fff"/>
      <path id="Path_16" data-name="Path 16" d="M505.03,376.319a4.47,4.47,0,0,0,.573-.325,55.029,55.029,0,0,0,7.822-8.6.97.97,0,0,0-.018-1.347,61.3,61.3,0,0,0-4.74-5.815,32.177,32.177,0,0,0-3.563-3.376A180.422,180.422,0,0,1,505.03,376.319Z" transform="translate(-227.217 -110.033)" fill="#fff"/>
      <path id="Path_17" data-name="Path 17" d="M476.456,479.736c-1.835-.205-3.666-.435-5.5-.636-.969-.106-2.81,1.244-2.916,2.213-.262,2.375-.456,4.758-.654,6.914-.156.809.085.923.682,1.078a3.019,3.019,0,0,0,3.33-1.333c.463-.555,1.011-1.039,1.5-1.569a52.9,52.9,0,0,0,4.231-5.094C477.824,480.347,477.58,479.859,476.456,479.736Z" transform="translate(-202.849 -189.061)" fill="#fff"/>
      <path id="Path_18" data-name="Path 18" d="M216.483,252.193a2.508,2.508,0,0,0-.156-.484.853.853,0,0,0-.046-.1,1.813,1.813,0,0,0-.209-.361.468.468,0,0,1-.039-.049,1.046,1.046,0,0,0-.113-.141l-.035-.035a1.5,1.5,0,0,0-.237-.216,2.139,2.139,0,0,0-.184-.127.051.051,0,0,0-.028-.018.6.6,0,0,0-.1-.06.744.744,0,0,0-.12-.057.149.149,0,0,0-.049-.021l-.1-.042a1.154,1.154,0,0,0-.156-.053q-.127-.037-.265-.064a.8.8,0,0,0-.127-.021,3.883,3.883,0,0,0-1.223.028,6.868,6.868,0,0,0-2.683,1.145,27.669,27.669,0,0,0-9.353,10.693,7.038,7.038,0,0,0-.855,3.234,2.537,2.537,0,0,0,3.263,2.715,9.334,9.334,0,0,0,3.719-1.736,26.984,26.984,0,0,0,7.734-8.731c.159-.283.315-.573.456-.862.12-.247.237-.495.343-.746.021-.046.039-.092.057-.138.032-.074.06-.148.088-.226q.064-.159.117-.329c.035-.11.071-.219.1-.329.018-.057.035-.113.049-.17.046-.166.085-.336.12-.509l.053-.286c.011-.081.025-.159.032-.24s.018-.145.025-.219.011-.152.018-.23.007-.152.011-.226a4.053,4.053,0,0,0-.046-.7C216.522,252.38,216.5,252.285,216.483,252.193Z" transform="translate(-30.264 -41.144)" fill="#fff"/>
      <path id="Path_19" data-name="Path 19" d="M456.756,253.156a8.148,8.148,0,0,0,.965,3.761,26.3,26.3,0,0,0,5.952,7.847,13.7,13.7,0,0,0,5.468,3.464c2.28.654,3.81-.406,3.8-2.591a5.882,5.882,0,0,0-.6-2.633,27.042,27.042,0,0,0-9.894-11.456,6.57,6.57,0,0,0-2.51-1.011A2.517,2.517,0,0,0,456.756,253.156Z" transform="translate(-196.005 -41.256)" fill="#fff"/>
    </g>
    <g id="Group_6" data-name="Group 6" transform="translate(1)">
      <text id="Globe_Easyhub_Eastwood" data-name="Globe Easyhub Eastwood" transform="translate(1028 151)" fill="#fff" font-size="18" font-family="FSElliotPro-Light, FS Elliot Pro" font-weight="300"><tspan x="-203.346" y="0">Globe Easyhub Eastwood</tspan></text>
      <g id="Rectangle_5" data-name="Rectangle 5" transform="translate(815 127)" fill="none" stroke="#fefefe" stroke-width="1">
        <rect width="223" height="36" rx="5" stroke="none"/>
        <rect x="0.5" y="0.5" width="222" height="35" rx="4.5" fill="none"/>
      </g>
    </g>
  </g>
</svg>
